<svg xmlns="http://www.w3.org/2000/svg" width="40" height="112" viewBox="0 0 40 112"><defs>
  <linearGradient id="bodyg" x1="0" y1="0" x2="0" y2="1">
    <stop offset="0%" stop-color="#f0f0f0"/>
    <stop offset="100%" stop-color="#e4e4e4"/>
  </linearGradient>
  <linearGradient id="screwg" x1="0" y1="0" x2="1" y2="1">
  <stop offset="0%" stop-color="#ccc"/><stop offset="40%" stop-color="#888"/>
  <stop offset="60%" stop-color="#bbb"/><stop offset="100%" stop-color="#555"/>
</linearGradient>
  <filter id="sh"><feDropShadow dx="1.5" dy="2" stdDeviation="2" flood-opacity=".45"/></filter>
</defs><rect x=".5" y=".5" width="39" height="111" rx="2" fill="url(#bodyg)" stroke="#aaa" stroke-width=".6" filter="url(#sh)"/><rect x="2" y=".5" width="36" height="10.1" rx="1.5" fill="#333"/><circle cx="20.0" cy="5.04" r="5" fill="url(#screwg)" stroke="#2a2a2a" stroke-width=".4"/>
<line x1="16.5" y1="5.04" x2="23.5" y2="5.04" stroke="#1a1a1a" stroke-width="1.2"/>
<line x1="20.0" y1="1.5" x2="20.0" y2="8.5" stroke="#1a1a1a" stroke-width="1.2"/><rect x="2" y="12.3" width="36" height="10.1" rx="1" fill="#1a6b9a"/><text x="20.0" y="19.6" text-anchor="middle" font-size="8.8px" font-family="Arial" font-weight="bold" fill="#fff">Sch.</text><rect x="3" y="25.8" width="34" height="48.2" rx="2" fill="#1a7a1a"/><rect x="6" y="28.0" width="28" height="21.3" rx="2.5" fill="#f5f5f5" stroke="#88888840" stroke-width=".4"/><rect x="7" y="30.2" width="26" height="3" rx="1.5" fill="rgba(255,255,255,.25)"/><text x="20.0" y="82.9" text-anchor="middle" font-size="9.6px" font-family="Arial Black,Arial" font-weight="800" fill="#2a2a2a">C10</text><rect x="2" y="98.6" width="36" height="10.1" rx="1.5" fill="#333"/><circle cx="20.0" cy="106.96" r="5" fill="url(#screwg)" stroke="#2a2a2a" stroke-width=".4"/>
<line x1="16.5" y1="106.96" x2="23.5" y2="106.96" stroke="#1a1a1a" stroke-width="1.2"/>
<line x1="20.0" y1="103.5" x2="20.0" y2="110.5" stroke="#1a1a1a" stroke-width="1.2"/></svg>