<svg xmlns="http://www.w3.org/2000/svg" width="80" height="130" viewBox="0 0 80 130"><defs>
  <linearGradient id="diffg" x1="0" y1="0" x2="0" y2="1">
    <stop offset="0%" stop-color="#ddeefa"/><stop offset="100%" stop-color="#c4d8ee"/>
  </linearGradient>
  <linearGradient id="screwg" x1="0" y1="0" x2="1" y2="1">
  <stop offset="0%" stop-color="#ccc"/><stop offset="40%" stop-color="#888"/>
  <stop offset="60%" stop-color="#bbb"/><stop offset="100%" stop-color="#555"/>
</linearGradient>
  <filter id="sh"><feDropShadow dx="1.5" dy="2" stdDeviation="2" flood-opacity=".4"/></filter>
</defs><rect x=".5" y=".5" width="79" height="129" rx="2" fill="url(#diffg)" stroke="#8aaccc" stroke-width=".7" filter="url(#sh)"/><rect x="2" y=".5" width="76" height="11.7" rx="1.5" fill="#222"/><text x="40.0" y="8.5" text-anchor="middle" font-size="8px" font-family="Arial" font-weight="bold" fill="#fff">ID 2P 30mA</text><rect x="3" y="15.6" width="34" height="18.2" rx="1" fill="#1a5a9a"/><rect x="4" y="37.7" width="32" height="44.2" rx="2" fill="#1a5a8a"/><rect x="2" y="113.1" width="36" height="11.7" rx="1.5" fill="#222"/><circle cx="20.0" cy="5.85" r="4.5" fill="url(#screwg)" stroke="#2a2a2a" stroke-width=".4"/>
<line x1="16.9" y1="5.85" x2="23.1" y2="5.85" stroke="#1a1a1a" stroke-width="1.2"/>
<line x1="20.0" y1="2.7" x2="20.0" y2="9.0" stroke="#1a1a1a" stroke-width="1.2"/><circle cx="20.0" cy="124.14999999999999" r="4.5" fill="url(#screwg)" stroke="#2a2a2a" stroke-width=".4"/>
<line x1="16.9" y1="124.14999999999999" x2="23.1" y2="124.14999999999999" stroke="#1a1a1a" stroke-width="1.2"/>
<line x1="20.0" y1="121.0" x2="20.0" y2="127.3" stroke="#1a1a1a" stroke-width="1.2"/><rect x="43" y="15.6" width="34" height="18.2" rx="1" fill="#1a5a9a"/><rect x="44" y="37.7" width="32" height="44.2" rx="2" fill="#1a5a8a"/><rect x="42" y="113.1" width="36" height="11.7" rx="1.5" fill="#222"/><circle cx="60.0" cy="5.85" r="4.5" fill="url(#screwg)" stroke="#2a2a2a" stroke-width=".4"/>
<line x1="56.9" y1="5.85" x2="63.1" y2="5.85" stroke="#1a1a1a" stroke-width="1.2"/>
<line x1="60.0" y1="2.7" x2="60.0" y2="9.0" stroke="#1a1a1a" stroke-width="1.2"/><circle cx="60.0" cy="124.14999999999999" r="4.5" fill="url(#screwg)" stroke="#2a2a2a" stroke-width=".4"/>
<line x1="56.9" y1="124.14999999999999" x2="63.1" y2="124.14999999999999" stroke="#1a1a1a" stroke-width="1.2"/>
<line x1="60.0" y1="121.0" x2="60.0" y2="127.3" stroke="#1a1a1a" stroke-width="1.2"/><rect x="16.0" y="87.1" width="48.0" height="16.9" rx="3" fill="#cc2222"/><text x="40.0" y="98.2" text-anchor="middle" font-size="9px" font-family="Arial" font-weight="bold" fill="#fff">TEST</text><line x1="40" y1="11.7" x2="40" y2="113.1" stroke="#99b8d8" stroke-width=".8"/></svg>