<svg xmlns="http://www.w3.org/2000/svg" width="80" height="148" viewBox="0 0 80 148">
<defs>
  <linearGradient id="icpg" x1="0" y1="0" x2="0" y2="1">
    <stop offset="0%" stop-color="#f5ead0"/><stop offset="100%" stop-color="#e8d5b0"/>
  </linearGradient>
  <linearGradient id="screwg" x1="0" y1="0" x2="1" y2="1">
  <stop offset="0%" stop-color="#ccc"/><stop offset="40%" stop-color="#888"/>
  <stop offset="60%" stop-color="#bbb"/><stop offset="100%" stop-color="#555"/>
</linearGradient>
  <filter id="sh"><feDropShadow dx="1.5" dy="2" stdDeviation="2" flood-opacity=".45"/></filter>
</defs>
<rect x=".5" y=".5" width="79" height="147" rx="2" fill="url(#icpg)" stroke="#c0a060" stroke-width=".7" filter="url(#sh)"/>
<rect x="2" y=".5" width="76" height="11.8" rx="1.5" fill="#333"/>
<circle cx="40.0" cy="5.92" r="5" fill="url(#screwg)" stroke="#2a2a2a" stroke-width=".4"/>
<line x1="36.5" y1="5.92" x2="43.5" y2="5.92" stroke="#1a1a1a" stroke-width="1.2"/>
<line x1="40.0" y1="2.4" x2="40.0" y2="9.4" stroke="#1a1a1a" stroke-width="1.2"/>
<text x="40.0" y="21.5" text-anchor="middle" font-size="8.5px" font-family="Arial" font-weight="800" fill="#5a3010">ICP-M</text>
<rect x="8" y="26.6" width="64" height="65.1" rx="2" fill="#7a5a10"/>
<rect x="12" y="32.6" width="56" height="35.5" rx="1.5" fill="none" stroke="#c8a020" stroke-width="2"/>
<rect x="14" y="35.5" width="52" height="29.6" rx="1" fill="#c0a020"/>
<text x="40.0" y="108.0" text-anchor="middle" font-size="11px" font-family="Arial Black,Arial" font-weight="800" fill="#222">C40</text>
<rect x="2" y="131.7" width="76" height="11.8" rx="1.5" fill="#333"/>
<circle cx="40.0" cy="142.07999999999998" r="5" fill="url(#screwg)" stroke="#2a2a2a" stroke-width=".4"/>
<line x1="36.5" y1="142.07999999999998" x2="43.5" y2="142.07999999999998" stroke="#1a1a1a" stroke-width="1.2"/>
<line x1="40.0" y1="138.6" x2="40.0" y2="145.6" stroke="#1a1a1a" stroke-width="1.2"/>
</svg>