<svg xmlns="http://www.w3.org/2000/svg" width="18" height="300" viewBox="0 0 18 300">
<defs>
  <linearGradient id="busg" x1="0" y1="0" x2="1" y2="0">
    <stop offset="0%" stop-color="#228844" stop-opacity=".7"/>
    <stop offset="40%" stop-color="#33cc66"/>
    <stop offset="100%" stop-color="#228844" stop-opacity=".8"/>
  </linearGradient>
</defs>
<rect x="3" y="0" width="12" height="300" rx="1.5" fill="url(#busg)"/>
<rect x="5" y="0" width="8" height="300" rx=".5" fill="#33cc66" opacity=".3"/>
<circle cx="9" cy="9" r="3.5" fill="#228844" stroke="#228844" stroke-width="1" opacity=".9"/><circle cx="9" cy="27" r="3.5" fill="#228844" stroke="#228844" stroke-width="1" opacity=".9"/><circle cx="9" cy="45" r="3.5" fill="#228844" stroke="#228844" stroke-width="1" opacity=".9"/><circle cx="9" cy="63" r="3.5" fill="#228844" stroke="#228844" stroke-width="1" opacity=".9"/><circle cx="9" cy="81" r="3.5" fill="#228844" stroke="#228844" stroke-width="1" opacity=".9"/><circle cx="9" cy="99" r="3.5" fill="#228844" stroke="#228844" stroke-width="1" opacity=".9"/><circle cx="9" cy="117" r="3.5" fill="#228844" stroke="#228844" stroke-width="1" opacity=".9"/><circle cx="9" cy="135" r="3.5" fill="#228844" stroke="#228844" stroke-width="1" opacity=".9"/><circle cx="9" cy="153" r="3.5" fill="#228844" stroke="#228844" stroke-width="1" opacity=".9"/><circle cx="9" cy="171" r="3.5" fill="#228844" stroke="#228844" stroke-width="1" opacity=".9"/><circle cx="9" cy="189" r="3.5" fill="#228844" stroke="#228844" stroke-width="1" opacity=".9"/><circle cx="9" cy="207" r="3.5" fill="#228844" stroke="#228844" stroke-width="1" opacity=".9"/><circle cx="9" cy="225" r="3.5" fill="#228844" stroke="#228844" stroke-width="1" opacity=".9"/><circle cx="9" cy="243" r="3.5" fill="#228844" stroke="#228844" stroke-width="1" opacity=".9"/><circle cx="9" cy="261" r="3.5" fill="#228844" stroke="#228844" stroke-width="1" opacity=".9"/><circle cx="9" cy="279" r="3.5" fill="#228844" stroke="#228844" stroke-width="1" opacity=".9"/>
</svg>