<svg xmlns="http://www.w3.org/2000/svg" width="400" height="28" viewBox="0 0 400 28"><rect x="0" y="4" width="400" height="20" rx="3" fill="#1a1a1e"/><path d="M0 4 Q5 0 10 4 Q5 8 0 4" fill="none" stroke="#333" stroke-width="1"/><path d="M0 24 Q5 28 10 24 Q5 20 0 24" fill="none" stroke="#333" stroke-width="1"/><path d="M10 4 Q15 0 20 4 Q15 8 10 4" fill="none" stroke="#333" stroke-width="1"/><path d="M10 24 Q15 28 20 24 Q15 20 10 24" fill="none" stroke="#333" stroke-width="1"/><path d="M20 4 Q25 0 30 4 Q25 8 20 4" fill="none" stroke="#333" stroke-width="1"/><path d="M20 24 Q25 28 30 24 Q25 20 20 24" fill="none" stroke="#333" stroke-width="1"/><path d="M30 4 Q35 0 40 4 Q35 8 30 4" fill="none" stroke="#333" stroke-width="1"/><path d="M30 24 Q35 28 40 24 Q35 20 30 24" fill="none" stroke="#333" stroke-width="1"/><path d="M40 4 Q45 0 50 4 Q45 8 40 4" fill="none" stroke="#333" stroke-width="1"/><path d="M40 24 Q45 28 50 24 Q45 20 40 24" fill="none" stroke="#333" stroke-width="1"/><path d="M50 4 Q55 0 60 4 Q55 8 50 4" fill="none" stroke="#333" stroke-width="1"/><path d="M50 24 Q55 28 60 24 Q55 20 50 24" fill="none" stroke="#333" stroke-width="1"/><path d="M60 4 Q65 0 70 4 Q65 8 60 4" fill="none" stroke="#333" stroke-width="1"/><path d="M60 24 Q65 28 70 24 Q65 20 60 24" fill="none" stroke="#333" stroke-width="1"/><path d="M70 4 Q75 0 80 4 Q75 8 70 4" fill="none" stroke="#333" stroke-width="1"/><path d="M70 24 Q75 28 80 24 Q75 20 70 24" fill="none" stroke="#333" stroke-width="1"/><path d="M80 4 Q85 0 90 4 Q85 8 80 4" fill="none" stroke="#333" stroke-width="1"/><path d="M80 24 Q85 28 90 24 Q85 20 80 24" fill="none" stroke="#333" stroke-width="1"/><path d="M90 4 Q95 0 100 4 Q95 8 90 4" fill="none" stroke="#333" stroke-width="1"/><path d="M90 24 Q95 28 100 24 Q95 20 90 24" fill="none" stroke="#333" stroke-width="1"/><path d="M100 4 Q105 0 110 4 Q105 8 100 4" fill="none" stroke="#333" stroke-width="1"/><path d="M100 24 Q105 28 110 24 Q105 20 100 24" fill="none" stroke="#333" stroke-width="1"/><path d="M110 4 Q115 0 120 4 Q115 8 110 4" fill="none" stroke="#333" stroke-width="1"/><path d="M110 24 Q115 28 120 24 Q115 20 110 24" fill="none" stroke="#333" stroke-width="1"/><path d="M120 4 Q125 0 130 4 Q125 8 120 4" fill="none" stroke="#333" stroke-width="1"/><path d="M120 24 Q125 28 130 24 Q125 20 120 24" fill="none" stroke="#333" stroke-width="1"/><path d="M130 4 Q135 0 140 4 Q135 8 130 4" fill="none" stroke="#333" stroke-width="1"/><path d="M130 24 Q135 28 140 24 Q135 20 130 24" fill="none" stroke="#333" stroke-width="1"/><path d="M140 4 Q145 0 150 4 Q145 8 140 4" fill="none" stroke="#333" stroke-width="1"/><path d="M140 24 Q145 28 150 24 Q145 20 140 24" fill="none" stroke="#333" stroke-width="1"/><path d="M150 4 Q155 0 160 4 Q155 8 150 4" fill="none" stroke="#333" stroke-width="1"/><path d="M150 24 Q155 28 160 24 Q155 20 150 24" fill="none" stroke="#333" stroke-width="1"/><path d="M160 4 Q165 0 170 4 Q165 8 160 4" fill="none" stroke="#333" stroke-width="1"/><path d="M160 24 Q165 28 170 24 Q165 20 160 24" fill="none" stroke="#333" stroke-width="1"/><path d="M170 4 Q175 0 180 4 Q175 8 170 4" fill="none" stroke="#333" stroke-width="1"/><path d="M170 24 Q175 28 180 24 Q175 20 170 24" fill="none" stroke="#333" stroke-width="1"/><path d="M180 4 Q185 0 190 4 Q185 8 180 4" fill="none" stroke="#333" stroke-width="1"/><path d="M180 24 Q185 28 190 24 Q185 20 180 24" fill="none" stroke="#333" stroke-width="1"/><path d="M190 4 Q195 0 200 4 Q195 8 190 4" fill="none" stroke="#333" stroke-width="1"/><path d="M190 24 Q195 28 200 24 Q195 20 190 24" fill="none" stroke="#333" stroke-width="1"/><path d="M200 4 Q205 0 210 4 Q205 8 200 4" fill="none" stroke="#333" stroke-width="1"/><path d="M200 24 Q205 28 210 24 Q205 20 200 24" fill="none" stroke="#333" stroke-width="1"/><path d="M210 4 Q215 0 220 4 Q215 8 210 4" fill="none" stroke="#333" stroke-width="1"/><path d="M210 24 Q215 28 220 24 Q215 20 210 24" fill="none" stroke="#333" stroke-width="1"/><path d="M220 4 Q225 0 230 4 Q225 8 220 4" fill="none" stroke="#333" stroke-width="1"/><path d="M220 24 Q225 28 230 24 Q225 20 220 24" fill="none" stroke="#333" stroke-width="1"/><path d="M230 4 Q235 0 240 4 Q235 8 230 4" fill="none" stroke="#333" stroke-width="1"/><path d="M230 24 Q235 28 240 24 Q235 20 230 24" fill="none" stroke="#333" stroke-width="1"/><path d="M240 4 Q245 0 250 4 Q245 8 240 4" fill="none" stroke="#333" stroke-width="1"/><path d="M240 24 Q245 28 250 24 Q245 20 240 24" fill="none" stroke="#333" stroke-width="1"/><path d="M250 4 Q255 0 260 4 Q255 8 250 4" fill="none" stroke="#333" stroke-width="1"/><path d="M250 24 Q255 28 260 24 Q255 20 250 24" fill="none" stroke="#333" stroke-width="1"/><path d="M260 4 Q265 0 270 4 Q265 8 260 4" fill="none" stroke="#333" stroke-width="1"/><path d="M260 24 Q265 28 270 24 Q265 20 260 24" fill="none" stroke="#333" stroke-width="1"/><path d="M270 4 Q275 0 280 4 Q275 8 270 4" fill="none" stroke="#333" stroke-width="1"/><path d="M270 24 Q275 28 280 24 Q275 20 270 24" fill="none" stroke="#333" stroke-width="1"/><path d="M280 4 Q285 0 290 4 Q285 8 280 4" fill="none" stroke="#333" stroke-width="1"/><path d="M280 24 Q285 28 290 24 Q285 20 280 24" fill="none" stroke="#333" stroke-width="1"/><path d="M290 4 Q295 0 300 4 Q295 8 290 4" fill="none" stroke="#333" stroke-width="1"/><path d="M290 24 Q295 28 300 24 Q295 20 290 24" fill="none" stroke="#333" stroke-width="1"/><path d="M300 4 Q305 0 310 4 Q305 8 300 4" fill="none" stroke="#333" stroke-width="1"/><path d="M300 24 Q305 28 310 24 Q305 20 300 24" fill="none" stroke="#333" stroke-width="1"/><path d="M310 4 Q315 0 320 4 Q315 8 310 4" fill="none" stroke="#333" stroke-width="1"/><path d="M310 24 Q315 28 320 24 Q315 20 310 24" fill="none" stroke="#333" stroke-width="1"/><path d="M320 4 Q325 0 330 4 Q325 8 320 4" fill="none" stroke="#333" stroke-width="1"/><path d="M320 24 Q325 28 330 24 Q325 20 320 24" fill="none" stroke="#333" stroke-width="1"/><path d="M330 4 Q335 0 340 4 Q335 8 330 4" fill="none" stroke="#333" stroke-width="1"/><path d="M330 24 Q335 28 340 24 Q335 20 330 24" fill="none" stroke="#333" stroke-width="1"/><path d="M340 4 Q345 0 350 4 Q345 8 340 4" fill="none" stroke="#333" stroke-width="1"/><path d="M340 24 Q345 28 350 24 Q345 20 340 24" fill="none" stroke="#333" stroke-width="1"/><path d="M350 4 Q355 0 360 4 Q355 8 350 4" fill="none" stroke="#333" stroke-width="1"/><path d="M350 24 Q355 28 360 24 Q355 20 350 24" fill="none" stroke="#333" stroke-width="1"/><path d="M360 4 Q365 0 370 4 Q365 8 360 4" fill="none" stroke="#333" stroke-width="1"/><path d="M360 24 Q365 28 370 24 Q365 20 360 24" fill="none" stroke="#333" stroke-width="1"/><path d="M370 4 Q375 0 380 4 Q375 8 370 4" fill="none" stroke="#333" stroke-width="1"/><path d="M370 24 Q375 28 380 24 Q375 20 370 24" fill="none" stroke="#333" stroke-width="1"/><path d="M380 4 Q385 0 390 4 Q385 8 380 4" fill="none" stroke="#333" stroke-width="1"/><path d="M380 24 Q385 28 390 24 Q385 20 380 24" fill="none" stroke="#333" stroke-width="1"/><path d="M390 4 Q395 0 400 4 Q395 8 390 4" fill="none" stroke="#333" stroke-width="1"/><path d="M390 24 Q395 28 400 24 Q395 20 390 24" fill="none" stroke="#333" stroke-width="1"/><path d="M400 4 Q405 0 410 4 Q405 8 400 4" fill="none" stroke="#333" stroke-width="1"/><path d="M400 24 Q405 28 410 24 Q405 20 400 24" fill="none" stroke="#333" stroke-width="1"/><rect x="2" y="10" width="396" height="8" rx="1" fill="#222" opacity=".6"/></svg>