<svg xmlns="http://www.w3.org/2000/svg" width="400" height="22" viewBox="0 0 400 22">
<defs>
  <linearGradient id="pg" x1="0" y1="0" x2="0" y2="1">
    <stop offset="0%" stop-color="#e8b820"/><stop offset="50%" stop-color="#d4a010"/>
    <stop offset="100%" stop-color="#c09000"/>
  </linearGradient>
</defs>
<rect x="0" y="4" width="400" height="6" rx=".5" fill="url(#pg)"/>
<rect x="0" y="12" width="400" height="6" rx=".5" fill="#4488ee"/>
<line x1="10" y1="0" x2="10" y2="22" stroke="#ccc" stroke-width=".5" stroke-dasharray="1,2"/><line x1="30" y1="0" x2="30" y2="22" stroke="#ccc" stroke-width=".5" stroke-dasharray="1,2"/><line x1="50" y1="0" x2="50" y2="22" stroke="#ccc" stroke-width=".5" stroke-dasharray="1,2"/><line x1="70" y1="0" x2="70" y2="22" stroke="#ccc" stroke-width=".5" stroke-dasharray="1,2"/><line x1="90" y1="0" x2="90" y2="22" stroke="#ccc" stroke-width=".5" stroke-dasharray="1,2"/><line x1="110" y1="0" x2="110" y2="22" stroke="#ccc" stroke-width=".5" stroke-dasharray="1,2"/><line x1="130" y1="0" x2="130" y2="22" stroke="#ccc" stroke-width=".5" stroke-dasharray="1,2"/><line x1="150" y1="0" x2="150" y2="22" stroke="#ccc" stroke-width=".5" stroke-dasharray="1,2"/><line x1="170" y1="0" x2="170" y2="22" stroke="#ccc" stroke-width=".5" stroke-dasharray="1,2"/><line x1="190" y1="0" x2="190" y2="22" stroke="#ccc" stroke-width=".5" stroke-dasharray="1,2"/><line x1="210" y1="0" x2="210" y2="22" stroke="#ccc" stroke-width=".5" stroke-dasharray="1,2"/><line x1="230" y1="0" x2="230" y2="22" stroke="#ccc" stroke-width=".5" stroke-dasharray="1,2"/><line x1="250" y1="0" x2="250" y2="22" stroke="#ccc" stroke-width=".5" stroke-dasharray="1,2"/><line x1="270" y1="0" x2="270" y2="22" stroke="#ccc" stroke-width=".5" stroke-dasharray="1,2"/><line x1="290" y1="0" x2="290" y2="22" stroke="#ccc" stroke-width=".5" stroke-dasharray="1,2"/><line x1="310" y1="0" x2="310" y2="22" stroke="#ccc" stroke-width=".5" stroke-dasharray="1,2"/><line x1="330" y1="0" x2="330" y2="22" stroke="#ccc" stroke-width=".5" stroke-dasharray="1,2"/><line x1="350" y1="0" x2="350" y2="22" stroke="#ccc" stroke-width=".5" stroke-dasharray="1,2"/><line x1="370" y1="0" x2="370" y2="22" stroke="#ccc" stroke-width=".5" stroke-dasharray="1,2"/><line x1="390" y1="0" x2="390" y2="22" stroke="#ccc" stroke-width=".5" stroke-dasharray="1,2"/>
</svg>